TITLE ""
FILE "Disc2Track34.mp3" MP3
  TRACK 01 AUDIO
    TITLE "Disc2Track34_01"
    INDEX 01 00:00:00
  TRACK 02 AUDIO
    TITLE "Disc2Track34_02"
    INDEX 01 00:01:33
  TRACK 03 AUDIO
    TITLE "Disc2Track34_03"
    INDEX 01 00:02:72
  TRACK 04 AUDIO
    TITLE "Disc2Track34_04"
    INDEX 01 00:04:39
  TRACK 05 AUDIO
    TITLE "Disc2Track34_05"
    INDEX 01 00:08:59
  TRACK 06 AUDIO
    TITLE "Disc2Track34_06"
    INDEX 01 00:09:17
  TRACK 07 AUDIO
    TITLE "Disc2Track34_07"
    INDEX 01 00:10:71
  TRACK 08 AUDIO
    TITLE "Disc2Track34_08"
    INDEX 01 00:11:69
  TRACK 09 AUDIO
    TITLE "Disc2Track34_09"
    INDEX 01 00:13:50
  TRACK 10 AUDIO
    TITLE "Disc2Track34_10"
    INDEX 01 00:14:08
  TRACK 11 AUDIO
    TITLE "Disc2Track34_11"
    INDEX 01 00:15:63
  TRACK 12 AUDIO
    TITLE "Disc2Track34_12"
    INDEX 01 00:18:34
  TRACK 13 AUDIO
    TITLE "Disc2Track34_13"
    INDEX 01 00:20:13
  TRACK 14 AUDIO
    TITLE "Disc2Track34_14"
    INDEX 01 00:23:70
  TRACK 15 AUDIO
    TITLE "Disc2Track34_15"
    INDEX 01 00:24:26
  TRACK 16 AUDIO
    TITLE "Disc2Track34_16"
    INDEX 01 00:25:61
  TRACK 17 AUDIO
    TITLE "Disc2Track34_17"
    INDEX 01 00:27:31
  TRACK 18 AUDIO
    TITLE "Disc2Track34_18"
    INDEX 01 00:28:63
  TRACK 19 AUDIO
    TITLE "Disc2Track34_19"
    INDEX 01 00:31:56
  TRACK 20 AUDIO
    TITLE "Disc2Track34_20"
    INDEX 01 00:32:12
  TRACK 21 AUDIO
    TITLE "Disc2Track34_21"
    INDEX 01 00:33:57
  TRACK 22 AUDIO
    TITLE "Disc2Track34_22"
    INDEX 01 00:34:62
  TRACK 23 AUDIO
    TITLE "Disc2Track34_23"
    INDEX 01 00:36:34
  TRACK 24 AUDIO
    TITLE "Disc2Track34_24"
    INDEX 01 00:36:67
  TRACK 25 AUDIO
    TITLE "Disc2Track34_25"
    INDEX 01 00:38:07
  TRACK 26 AUDIO
    TITLE "Disc2Track34_26"
    INDEX 01 00:39:57
  TRACK 27 AUDIO
    TITLE "Disc2Track34_27"
    INDEX 01 00:40:73
  TRACK 28 AUDIO
    TITLE "Disc2Track34_28"
    INDEX 01 00:44:06
  TRACK 29 AUDIO
    TITLE "Disc2Track34_29"
    INDEX 01 00:44:39
  TRACK 30 AUDIO
    TITLE "Disc2Track34_30"
    INDEX 01 00:45:62
  TRACK 31 AUDIO
    TITLE "Disc2Track34_31"
    INDEX 01 00:46:71
  TRACK 32 AUDIO
    TITLE "Disc2Track34_32"
    INDEX 01 00:48:17
  TRACK 33 AUDIO
    TITLE "Disc2Track34_33"
    INDEX 01 00:50:04
  TRACK 34 AUDIO
    TITLE "Disc2Track34_34"
    INDEX 01 00:50:36
  TRACK 35 AUDIO
    TITLE "Disc2Track34_35"
    INDEX 01 00:51:64
  TRACK 36 AUDIO
    TITLE "Disc2Track34_36"
    INDEX 01 00:52:66
  TRACK 37 AUDIO
    TITLE "Disc2Track34_37"
    INDEX 01 00:54:22
  TRACK 38 AUDIO
    TITLE "Disc2Track34_38"
    INDEX 01 00:54:57
  TRACK 39 AUDIO
    TITLE "Disc2Track34_39"
    INDEX 01 00:56:13
  TRACK 40 AUDIO
    TITLE "Disc2Track34_40"
    INDEX 01 00:57:59
  TRACK 41 AUDIO
    TITLE "Disc2Track34_41"
    INDEX 01 00:59:13
  TRACK 42 AUDIO
    TITLE "Disc2Track34_42"
    INDEX 01 01:02:45
  TRACK 43 AUDIO
    TITLE "Disc2Track34_43"
    INDEX 01 01:03:01
  TRACK 44 AUDIO
    TITLE "Disc2Track34_44"
    INDEX 01 01:04:32
  TRACK 45 AUDIO
    TITLE "Disc2Track34_45"
    INDEX 01 01:05:49
  TRACK 46 AUDIO
    TITLE "Disc2Track34_46"
    INDEX 01 01:07:03
  TRACK 47 AUDIO
    TITLE "Disc2Track34_47"
    INDEX 01 01:10:58
  TRACK 48 AUDIO
    TITLE "Disc2Track34_48"
    INDEX 01 01:11:14
  TRACK 49 AUDIO
    TITLE "Disc2Track34_49"
    INDEX 01 01:12:47
  TRACK 50 AUDIO
    TITLE "Disc2Track34_50"
    INDEX 01 01:14:17
  TRACK 51 AUDIO
    TITLE "Disc2Track34_51"
    INDEX 01 01:15:49
  TRACK 52 AUDIO
    TITLE "Disc2Track34_52"
    INDEX 01 01:19:04
  TRACK 53 AUDIO
    TITLE "Disc2Track34_53"
    INDEX 01 01:19:33
  TRACK 54 AUDIO
    TITLE "Disc2Track34_54"
    INDEX 01 01:21:01
  TRACK 55 AUDIO
    TITLE "Disc2Track34_55"
    INDEX 01 01:22:18
  TRACK 56 AUDIO
    TITLE "Disc2Track34_56"
    INDEX 01 01:23:59
  TRACK 57 AUDIO
    TITLE "Disc2Track34_57"
    INDEX 01 01:28:30
  TRACK 58 AUDIO
    TITLE "Disc2Track34_58"
    INDEX 01 01:28:60
  TRACK 59 AUDIO
    TITLE "Disc2Track34_59"
    INDEX 01 01:30:27
  TRACK 60 AUDIO
    TITLE "Disc2Track34_60"
    INDEX 01 01:31:33
  TRACK 61 AUDIO
    TITLE "Disc2Track34_61"
    INDEX 01 01:33:00
  TRACK 62 AUDIO
    TITLE "Disc2Track34_62"
    INDEX 01 01:33:41
  TRACK 63 AUDIO
    TITLE "Disc2Track34_63"
    INDEX 01 01:34:62
  TRACK 64 AUDIO
    TITLE "Disc2Track34_64"
    INDEX 01 01:37:31
  TRACK 65 AUDIO
    TITLE "Disc2Track34_65"
    INDEX 01 01:38:54
  TRACK 66 AUDIO
    TITLE "Disc2Track34_66"
    INDEX 01 01:42:27
  TRACK 67 AUDIO
    TITLE "Disc2Track34_67"
    INDEX 01 01:42:58
  TRACK 68 AUDIO
    TITLE "Disc2Track34_68"
    INDEX 01 01:43:73
  TRACK 69 AUDIO
    TITLE "Disc2Track34_69"
    INDEX 01 01:44:65
  TRACK 70 AUDIO
    TITLE "Disc2Track34_70"
    INDEX 01 01:46:07
  TRACK 71 AUDIO
    TITLE "Disc2Track34_71"
    INDEX 01 01:46:44
  TRACK 72 AUDIO
    TITLE "Disc2Track34_72"
    INDEX 01 01:47:69
  TRACK 73 AUDIO
    TITLE "Disc2Track34_73"
    INDEX 01 01:49:29
  TRACK 74 AUDIO
    TITLE "Disc2Track34_74"
    INDEX 01 01:50:54
  TRACK 75 AUDIO
    TITLE "Disc2Track34_75"
    INDEX 01 01:53:32
  TRACK 76 AUDIO
    TITLE "Disc2Track34_76"
    INDEX 01 01:53:66
  TRACK 77 AUDIO
    TITLE "Disc2Track34_77"
    INDEX 01 01:55:17
  TRACK 78 AUDIO
    TITLE "Disc2Track34_78"
    INDEX 01 01:56:07
  TRACK 79 AUDIO
    TITLE "Disc2Track34_79"
    INDEX 01 01:57:34
  TRACK 80 AUDIO
    TITLE "Disc2Track34_80"
    INDEX 01 01:59:45
